<svg xmlns="http://www.w3.org/2000/svg" viewBox="0 0 100 100" width="100" height="100" fill="none">
  <path d="M18 8 L18 68 L34 52 L44 76 L54 72 L44 48 L62 48 Z" fill="#3b82f6"/>
  <line x1="50" y1="70" x2="56" y2="54" stroke="#1e3a5f" stroke-width="2.5" stroke-linecap="round"/>
  <path d="M56 54 Q56 44 56 38" stroke="#1e3a5f" stroke-width="2" stroke-linecap="round" fill="none"/>
  <path d="M56 54 Q46 48 40 42" stroke="#1e3a5f" stroke-width="2" stroke-linecap="round" fill="none"/>
  <path d="M56 54 Q66 48 72 42" stroke="#1e3a5f" stroke-width="2" stroke-linecap="round" fill="none"/>
  <path d="M56 57 Q47 53 42 49" stroke="#1e3a5f" stroke-width="1.5" stroke-linecap="round" fill="none"/>
  <path d="M56 57 Q65 53 70 49" stroke="#1e3a5f" stroke-width="1.5" stroke-linecap="round" fill="none"/>
  <circle cx="56" cy="38" r="2.5" fill="#1e3a5f"/>
  <circle cx="40" cy="42" r="2.5" fill="#1e3a5f"/>
  <circle cx="72" cy="42" r="2.5" fill="#1e3a5f"/>
  <circle cx="42" cy="49" r="1.8" fill="#1e3a5f"/>
  <circle cx="70" cy="49" r="1.8" fill="#1e3a5f"/>
</svg>
